<?xml version="1.0" encoding="UTF-8"?>
<svg version="1.1" xmlns="http://www.w3.org/2000/svg" width="64" height="64">
<path d="M0 0 C3.32171393 2.65737114 4.91893538 4.79144339 5.5078125 9.0859375 C5.76530268 14.80221952 5.15574538 18.35275511 1.1875 22.75 C-3.26507906 26.21541651 -7.0994031 26.18969904 -12.5078125 26.1484375 C-13.33707245 26.15130768 -14.1663324 26.15417786 -15.02072144 26.15713501 C-16.76723924 26.15917031 -18.51378011 26.15367784 -20.26025391 26.14111328 C-22.93573706 26.12501061 -25.609719 26.14100037 -28.28515625 26.16015625 C-29.98437833 26.15817452 -31.68359948 26.1543323 -33.3828125 26.1484375 C-34.18284698 26.15451019 -34.98288147 26.16058289 -35.80715942 26.1668396 C-41.28826181 26.09721264 -41.28826181 26.09721264 -43.79638672 24.43603516 C-45.67406285 21.32041014 -45.47954277 19.26713463 -44.8125 15.75 C-43.41064453 14.52197266 -43.41064453 14.52197266 -41.5078125 13.4140625 C-40.78263428 12.9897998 -40.05745605 12.56553711 -39.31030273 12.12841797 C-34.57551018 9.51551221 -29.802957 6.9852333 -25 4.5 C-23.96423828 3.95859375 -22.92847656 3.4171875 -21.86132812 2.859375 C-14.13877842 -1.15494584 -8.43722468 -3.74987763 0 0 Z " fill="#3386FC" transform="translate(51.8125,31.25)"/>
<path d="M0 0 C0.82925995 -0.00287018 1.6585199 -0.00574036 2.51290894 -0.00869751 C4.25942674 -0.01073281 6.00596761 -0.00524034 7.75244141 0.00732422 C10.42792456 0.02342689 13.1019065 0.00743713 15.77734375 -0.01171875 C17.47656583 -0.00973702 19.17578698 -0.0058948 20.875 0 C21.67503448 -0.00607269 22.47506897 -0.01214539 23.29934692 -0.0184021 C28.78044931 0.05122486 28.78044931 0.05122486 31.28857422 1.71240234 C33.16625035 4.82802736 32.97173027 6.88130287 32.3046875 10.3984375 C30.89404297 11.62646484 30.89404297 11.62646484 28.984375 12.734375 C27.89564087 13.37076904 27.89564087 13.37076904 26.78491211 14.02001953 C25.96643799 14.47489746 25.14796387 14.92977539 24.3046875 15.3984375 C23.41338135 15.89585449 22.5220752 16.39327148 21.60375977 16.90576172 C18.66503619 18.51671405 15.70721618 20.08648566 12.7421875 21.6484375 C11.73994141 22.18984375 10.73769531 22.73125 9.70507812 23.2890625 C4.53558616 26.01163891 0.201558 28.26858413 -5.6953125 28.3984375 C-10.3596622 26.89635878 -13.53916087 25.16154137 -16.6953125 21.3984375 C-18.55149457 17.68607336 -18.14341231 13.45000662 -17.6953125 9.3984375 C-13.69391766 1.24744801 -8.39882061 -0.06407582 0 0 Z " fill="#3086FD" transform="translate(24.6953125,6.6015625)"/>
<path d="M0 0 C0.66 4.95 1.32 9.9 2 15 C2.99 15.33 3.98 15.66 5 16 C5.33 16.99 5.66 17.98 6 19 C8.31 19.33 10.62 19.66 13 20 C7.54586894 24.54510922 1.17805872 27.86948984 -6 28 C-10.6643497 26.49792128 -13.84384837 24.76310387 -17 21 C-18.85618207 17.28763586 -18.44809981 13.05156912 -18 9 C-13.82542247 0.49623096 -8.76818647 -0.39260536 0 0 Z " fill="#04B85E" transform="translate(25,7)"/>
<path d="M0 0 C3.32171393 2.65737114 4.91893538 4.79144339 5.5078125 9.0859375 C5.76530268 14.80221952 5.15574538 18.35275511 1.1875 22.75 C-2.59374085 25.73519015 -5.09604646 25.86693686 -9.8125 25.75 C-9.68230469 24.66460937 -9.55210938 23.57921875 -9.41796875 22.4609375 C-9.27720516 21.0157646 -9.1379626 19.57044298 -9 18.125 C-8.91041016 17.41214844 -8.82082031 16.69929688 -8.72851562 15.96484375 C-8.35295308 11.76658832 -8.35295308 11.76658832 -9.91650391 7.95800781 C-11.16432406 6.50992022 -12.48478663 5.12520545 -13.8125 3.75 C-13.8125 3.09 -13.8125 2.43 -13.8125 1.75 C-14.4725 1.75 -15.1325 1.75 -15.8125 1.75 C-15.8125 1.09 -15.8125 0.43 -15.8125 -0.25 C-10.38481503 -3.13345764 -5.4566541 -2.4251796 0 0 Z " fill="#F9463D" transform="translate(51.8125,31.25)"/>
<path d="M0 0 C2.99079557 2.75070877 5.55550542 6.01126995 6.453125 10.02734375 C6.56786141 14.8558344 5.31804333 19.38684833 4 24 C1.03 24 -1.94 24 -5 24 C-4.34 22.68 -3.68 21.36 -3 20 C-2.66552626 15.78563082 -2.56125183 13.09687042 -4.125 9.1875 C-6.43206247 6.49592712 -8.75961269 5.36816353 -12 4 C-4.69593496 -1.73890825 -4.69593496 -1.73890825 0 0 Z " fill="#5487D7" transform="translate(38,33)"/>
<path d="M0 0 C0.99 0.66 1.98 1.32 3 2 C2.45276317 5.37462715 1.9451 7.08235 0 10 C-0.99 10 -1.98 10 -3 10 C-3 11.32 -3 12.64 -3 14 C-3.66 14 -4.32 14 -5 14 C-9.28571429 6.57142857 -9.28571429 6.57142857 -11 3 C-11.66 3 -12.32 3 -13 3 C-13 2.34 -13 1.68 -13 1 C-8.29258468 -1.50081439 -5.07867094 -0.98296857 0 0 Z " fill="#F5B50D" transform="translate(49,30)"/>
<path d="M0 0 C1.32 0 2.64 0 4 0 C4.07476563 0.90363281 4.14953125 1.80726562 4.2265625 2.73828125 C4.69203697 9.90412139 4.69203697 9.90412139 8.8125 15.25 C9.864375 15.4975 10.91625 15.745 12 16 C12.94875 16.226875 13.8975 16.45375 14.875 16.6875 C15.57625 16.790625 16.2775 16.89375 17 17 C17 17.66 17 18.32 17 19 C14.47524538 20.26237731 12.68799534 20.09856404 9.875 20.0625 C8.96492188 20.05347656 8.05484375 20.04445313 7.1171875 20.03515625 C6.06917969 20.01775391 6.06917969 20.01775391 5 20 C4.8659375 19.37222656 4.731875 18.74445312 4.59375 18.09765625 C3.89137792 15.61624963 2.83333239 14.75694354 1 13 C-0.00496852 9.98509443 -0.10335303 7.95818308 -0.0625 4.8125 C-0.05347656 3.91144531 -0.04445313 3.01039062 -0.03515625 2.08203125 C-0.02355469 1.39496094 -0.01195313 0.70789063 0 0 Z " fill="#2592D8" transform="translate(25,7)"/>
<path d="M0 0 C4.01534846 1.51707714 6.11164546 5.1139688 8.078125 8.78515625 C9.28997022 14.20711891 7.56827062 19.56964659 6.078125 24.78515625 C5.418125 24.78515625 4.758125 24.78515625 4.078125 24.78515625 C4.14773437 23.85896484 4.14773437 23.85896484 4.21875 22.9140625 C4.49709217 16.38296239 3.58388022 11.37541458 0.078125 5.78515625 C-2.00742536 3.88183404 -2.00742536 3.88183404 -3.921875 2.78515625 C-3.921875 2.12515625 -3.921875 1.46515625 -3.921875 0.78515625 C-1.921875 -0.21484375 -1.921875 -0.21484375 0 0 Z " fill="#AF9F65" transform="translate(35.921875,32.21484375)"/>
<path d="M0 0 C0.66 0 1.32 0 2 0 C2.99 1.98 3.98 3.96 5 6 C1.65880966 11.81614614 1.65880966 11.81614614 -1.6875 12.75 C-2.450625 12.8325 -3.21375 12.915 -4 13 C-4.33 13.66 -4.66 14.32 -5 15 C-6 14 -6 14 -6.0625 10.4375 C-6.041875 9.303125 -6.02125 8.16875 -6 7 C-5.01 6.67 -4.02 6.34 -3 6 C-1.29144978 2.99992729 -1.29144978 2.99992729 0 0 Z " fill="#F7682F" transform="translate(52,33)"/>
<path d="M0 0 C0.99 0 1.98 0 3 0 C3.66 4.95 4.32 9.9 5 15 C5.99 15.33 6.98 15.66 8 16 C8.33 16.99 8.66 17.98 9 19 C7.35 19.33 5.7 19.66 4 20 C0.89900954 15.01145013 -0.12569553 11.68968451 -0.0625 5.8125 C-0.05347656 4.72582031 -0.04445313 3.63914062 -0.03515625 2.51953125 C-0.02355469 1.68808594 -0.01195313 0.85664062 0 0 Z " fill="#16A49E" transform="translate(22,7)"/>
<path d="M0 0 C0.33 0.99 0.66 1.98 1 3 C0.01 3.495 0.01 3.495 -1 4 C-0.67 2.68 -0.34 1.36 0 0 Z M-12 5 C-11.34 5 -10.68 5 -10 5 C-9.67 5.99 -9.34 6.98 -9 8 C-7.68 7.34 -6.36 6.68 -5 6 C-5 9.61806453 -5.86311787 10.20561568 -8 13 C-8.71162443 14.64797236 -9.39031953 16.31165408 -10 18 C-11.32 18 -12.64 18 -14 18 C-13.34 13.71 -12.68 9.42 -12 5 Z " fill="#F1533F" transform="translate(56,39)"/>
<path d="M0 0 C0.66 0 1.32 0 2 0 C2.02578125 0.73605469 2.0515625 1.47210938 2.078125 2.23046875 C2.47197057 9.94677735 2.47197057 9.94677735 7 16 C9.91765 17.9451 11.62537285 18.45276317 15 19 C15 19.33 15 19.66 15 20 C11.7 20 8.4 20 5 20 C4.67 18.68 4.34 17.36 4 16 C3.0206121 14.97980427 2.02104551 13.97850195 1 13 C-0.00496852 9.98509443 -0.10335303 7.95818308 -0.0625 4.8125 C-0.05347656 3.91144531 -0.04445313 3.01039062 -0.03515625 2.08203125 C-0.02355469 1.39496094 -0.01195313 0.70789063 0 0 Z " fill="#289DBA" transform="translate(25,7)"/>
<path d="M0 0 C0.268125 1.134375 0.53625 2.26875 0.8125 3.4375 C1.4003125 5.2009375 1.4003125 5.2009375 2 7 C2.99 7.33 3.98 7.66 5 8 C5 9.98 5 11.96 5 14 C4.34 14 3.68 14 3 14 C-1.28571429 6.57142857 -1.28571429 6.57142857 -3 3 C-3.66 3 -4.32 3 -5 3 C-5 2.34 -5 1.68 -5 1 C-3 0 -3 0 0 0 Z " fill="#DCAE2C" transform="translate(41,30)"/>
<path d="M0 0 C2.97 0 5.94 0 9 0 C5.4541332 2.954889 1.36218967 5.45934985 -3 7 C-3.99 6.67 -4.98 6.34 -6 6 C-4 3 -4 3 -1 2 C-0.67 1.34 -0.34 0.68 0 0 Z " fill="#78CA68" transform="translate(29,27)"/>
<path d="M0 0 C0.66 0.33 1.32 0.66 2 1 C3.49084832 5.47254497 3.49084832 9.52745503 2 14 C0.68 14 -0.64 14 -2 14 C-1.34 9.38 -0.68 4.76 0 0 Z " fill="#7B79B1" transform="translate(38,43)"/>
<path d="M0 0 C1.94921875 1.125 1.94921875 1.125 4 3 C4.64453125 5.8125 4.64453125 5.8125 4.8125 9 C4.88082031 10.051875 4.94914062 11.10375 5.01953125 12.1875 C5 15 5 15 4 18 C3.34 18 2.68 18 2 18 C2.02320313 17.32453125 2.04640625 16.6490625 2.0703125 15.953125 C2.09738281 14.61507812 2.09738281 14.61507812 2.125 13.25 C2.15980469 11.92742188 2.15980469 11.92742188 2.1953125 10.578125 C1.98836926 7.84647424 1.23849081 6.39896645 0 4 C0 2.68 0 1.36 0 0 Z " fill="#A96A85" transform="translate(38,39)"/>
<path d="M0 0 C0.66 0 1.32 0 2 0 C2.03738281 0.94101563 2.07476563 1.88203125 2.11328125 2.8515625 C2.17902344 4.09679687 2.24476562 5.34203125 2.3125 6.625 C2.37050781 7.85476562 2.42851562 9.08453125 2.48828125 10.3515625 C3.01996453 14.1423425 4.10647796 16.70029671 6 20 C3.14768516 19.04922839 2.16676728 18.31685782 0.75 15.625 C-0.32858308 10.41184845 -0.15447801 5.30374512 0 0 Z " fill="#0DAB85" transform="translate(22,7)"/>
<path d="M0 0 C0.66 0 1.32 0 2 0 C2.25532751 3.06393013 2.21861333 4.63233212 0.625 7.3125 C-0.179375 8.1478125 -0.179375 8.1478125 -1 9 C-1.66 9 -2.32 9 -3 9 C-3 9.66 -3 10.32 -3 11 C-3.99 10.67 -4.98 10.34 -6 10 C-6 9.01 -6 8.02 -6 7 C-5.01 6.67 -4.02 6.34 -3 6 C-1.29144978 2.99992729 -1.29144978 2.99992729 0 0 Z " fill="#F78820" transform="translate(52,33)"/>
<path d="M0 0 C0.66 0 1.32 0 2 0 C2.02708567 1.60407328 2.04643483 3.2082785 2.0625 4.8125 C2.07410156 5.70582031 2.08570313 6.59914063 2.09765625 7.51953125 C2 10 2 10 1 13 C0.01 13 -0.98 13 -2 13 C-1.34 8.71 -0.68 4.42 0 0 Z " fill="#D1625C" transform="translate(44,44)"/>
<path d="M0 0 C5.99725275 2.10714286 5.99725275 2.10714286 8 5 C7.5703125 7.1015625 7.5703125 7.1015625 7 9 C5.82737096 7.88121617 4.66204862 6.75476949 3.5 5.625 C2.8503125 4.99851562 2.200625 4.37203125 1.53125 3.7265625 C0 2 0 2 0 0 Z " fill="#6F96B1" transform="translate(30,34)"/>
<path d="M0 0 C0.33 0 0.66 0 1 0 C1 3.96 1 7.92 1 12 C-2 8 -2 8 -1.75 4.875 C-1 2 -1 2 0 0 Z " fill="#06B271" transform="translate(21,7)"/>
<path d="M0 0 C2.45416273 3.6812441 2.59384154 6.72261963 2 11 C0.5 13.5 0.5 13.5 -1 15 C-1.66 14.67 -2.32 14.34 -3 14 C-2.505 13.360625 -2.01 12.72125 -1.5 12.0625 C0.50950277 7.95976517 0.26385672 4.48556418 0 0 Z " fill="#4483EA" transform="translate(34,42)"/>
<path d="M0 0 C0.66 0.33 1.32 0.66 2 1 C1.45276317 4.37462715 0.9451 6.08235 -1 9 C-1.66 9 -2.32 9 -3 9 C-2.30058404 5.85262818 -1.23921302 2.97411124 0 0 Z " fill="#F99F13" transform="translate(50,31)"/>
<path d="M0 0 C4.95 0.99 4.95 0.99 10 2 C10 2.66 10 3.32 10 4 C3.375 4.25 3.375 4.25 0 2 C0 1.34 0 0.68 0 0 Z " fill="#3492DF" transform="translate(32,22)"/>
<path d="M0 0 C0.99 0 1.98 0 3 0 C2.85769192 1.41702513 2.71099254 2.8336096 2.5625 4.25 C2.48128906 5.03890625 2.40007813 5.8278125 2.31640625 6.640625 C2.02365007 8.82364639 1.57935581 10.8773182 1 13 C-0.00496852 9.98509443 -0.10335303 7.95818308 -0.0625 4.8125 C-0.05347656 3.91144531 -0.04445313 3.01039062 -0.03515625 2.08203125 C-0.02355469 1.39496094 -0.01195313 0.70789063 0 0 Z " fill="#2B8CEB" transform="translate(29,7)"/>
<path d="M0 0 C1.32 0.99 2.64 1.98 4 3 C3.67 4.65 3.34 6.3 3 8 C0.37613513 4.93882432 0 4.26826873 0 0 Z " fill="#949787" transform="translate(38,39)"/>
</svg>
