<?xml version="1.0" encoding="UTF-8"?>
<svg version="1.1" xmlns="http://www.w3.org/2000/svg" width="90" height="90">
<path d="M0 0 C0.98881165 -0.0066568 1.97762329 -0.0133136 2.99639893 -0.02017212 C5.08416899 -0.03027218 7.17197116 -0.03498996 9.25976562 -0.03466797 C12.42893684 -0.03902921 15.59670091 -0.07534481 18.765625 -0.11328125 C20.80207862 -0.11915259 22.83853879 -0.12311986 24.875 -0.125 C25.81075867 -0.13937103 26.74651733 -0.15374207 27.71063232 -0.16854858 C36.11040124 -0.11117286 43.33866978 1.91776893 49.640625 7.6484375 C55.92952996 14.03005359 56.16080387 21.20504722 56.13671875 29.67578125 C56.1419606 30.75670547 56.14720245 31.8376297 56.15260315 32.9513092 C56.15900637 35.22981917 56.15770847 37.50836227 56.14916992 39.78686523 C56.14066062 43.25890377 56.16944615 46.7292956 56.20117188 50.20117188 C56.20278418 52.42187451 56.2022058 54.64258004 56.19921875 56.86328125 C56.21045273 57.89372055 56.22168671 58.92415985 56.23326111 59.98582458 C56.15992175 67.63047885 54.61755861 72.99758628 49.5546875 78.796875 C48.81992188 79.42851563 48.08515625 80.06015625 47.328125 80.7109375 C46.59851563 81.35804687 45.86890625 82.00515625 45.1171875 82.671875 C39.22198111 86.73556095 33.23127035 86.64333307 26.3359375 86.63671875 C25.34238251 86.64100388 24.34882751 86.645289 23.32516479 86.64970398 C21.22899129 86.6554319 19.13279792 86.65595891 17.03662109 86.65161133 C13.84568011 86.64845487 10.65567005 86.67191817 7.46484375 86.69726562 C5.42187616 86.69953926 3.3789061 86.70024182 1.3359375 86.69921875 C0.38985626 86.7084285 -0.55622498 86.71763824 -1.53097534 86.72712708 C-9.84478895 86.66965104 -16.7335997 84.7324083 -23.296875 79.3359375 C-27.06391006 74.30643663 -29.40079498 69.89807847 -29.47387695 63.5324707 C-29.48671219 62.55748123 -29.49954742 61.58249176 -29.51277161 60.57795715 C-29.52015854 59.52484848 -29.52754547 58.47173981 -29.53515625 57.38671875 C-29.543228 56.30013474 -29.55129974 55.21355072 -29.55961609 54.09403992 C-29.57345388 51.79163202 -29.58417739 49.48920363 -29.59204102 47.18676758 C-29.60922307 43.67945 -29.65310969 40.17308256 -29.69726562 36.66601562 C-29.70739551 34.42709025 -29.71591069 32.18815688 -29.72265625 29.94921875 C-29.74016434 28.90623123 -29.75767242 27.86324371 -29.77571106 26.78865051 C-29.7521313 18.80331172 -28.12272195 13.51501532 -22.796875 7.5234375 C-15.50303108 1.14132407 -9.52862983 0.02246887 0 0 Z " fill="#15171A" transform="translate(31.296875,2.6640625)"/>
<path d="M0 0 C9.51999321 1.51111003 18.74465444 4.35849615 28 7 C27.67 8.65 27.34 10.3 27 12 C27.68626465 12.176521 28.3725293 12.35304199 29.07958984 12.53491211 C32.17866558 13.33344535 35.27683821 14.13542849 38.375 14.9375 C39.45523438 15.21529297 40.53546875 15.49308594 41.6484375 15.77929688 C42.6796875 16.04677734 43.7109375 16.31425781 44.7734375 16.58984375 C45.72653809 16.83597412 46.67963867 17.08210449 47.66162109 17.33569336 C50 18 50 18 52 19 C51.505 21.475 51.505 21.475 51 24 C45.71387676 23.43381171 40.83852195 22.54241414 35.7109375 21.07421875 C35.04518707 20.88535599 34.37943665 20.69649323 33.69351196 20.50190735 C31.58572988 19.90259067 29.48036759 19.29523748 27.375 18.6875 C25.9884349 18.29177893 24.60171692 17.89659316 23.21484375 17.50195312 C19.81457182 16.5330455 16.41622291 15.5575867 13.01843262 14.58001709 C9.67225583 13.61845924 6.32438483 12.66284101 2.9765625 11.70703125 C1.82494629 11.37807861 0.67333008 11.04912598 -0.51318359 10.71020508 C-1.33383301 10.4758374 -2.15448242 10.24146973 -3 10 C-1.125 1.125 -1.125 1.125 0 0 Z " fill="#F7F7F7" transform="translate(20,32)"/>
<path d="M0 0 C1.34856134 0.34919302 2.69754269 0.69676682 4.046875 1.04296875 C7.70821757 1.99303403 11.35563665 2.98685715 15 4 C14.34 5.32 13.68 6.64 13 8 C18.03494909 9.92243511 23.08012754 11.71338546 28.21484375 13.3515625 C30 14 30 14 31 15 C31.04063832 16.66617115 31.042721 18.33388095 31 20 C16.73383657 16.48300502 2.47772412 12.9654964 -11.65625 8.9453125 C-14.09813709 8.25496592 -16.53302724 7.59157 -19 7 C-17.75899411 3.6492841 -15.75803691 1.05901321 -12.9375 -1.14453125 C-8.70985923 -3.01117103 -4.25293487 -1.16596161 0 0 Z " fill="#F6F6F7" transform="translate(41,24)"/>
<path d="M0 0 C17.85649203 4.03872437 17.85649203 4.03872437 26 7 C25.67 8.65 25.34 10.3 25 12 C26.14597656 12.26554687 27.29195312 12.53109375 28.47265625 12.8046875 C30.00262536 13.16136742 31.53257209 13.51814337 33.0625 13.875 C33.81466797 14.04902344 34.56683594 14.22304688 35.34179688 14.40234375 C39.93743017 15.47664764 44.47297949 16.66534057 49 18 C48.25 19.9375 48.25 19.9375 47 22 C43.75279423 23.26661526 41.51980407 22.85914121 38.2109375 21.9609375 C37.27725342 21.71255127 36.34356934 21.46416504 35.3815918 21.20825195 C34.3894165 20.93327881 33.39724121 20.65830566 32.375 20.375 C31.35768799 20.09938232 30.34037598 19.82376465 29.29223633 19.53979492 C27.20597544 18.97327491 25.12076666 18.4028664 23.03662109 17.82861328 C20.2136219 17.05829175 17.38486707 16.31812998 14.55078125 15.58984375 C12.92957018 15.16450941 11.30846958 14.73875372 9.6875 14.3125 C8.93581543 14.12284668 8.18413086 13.93319336 7.40966797 13.73779297 C2.22749233 12.34123849 2.22749233 12.34123849 0 9 C-0.1953125 6.73828125 -0.1953125 6.73828125 -0.125 4.3125 C-0.10695313 3.50425781 -0.08890625 2.69601563 -0.0703125 1.86328125 C-0.04710938 1.24839844 -0.02390625 0.63351563 0 0 Z " fill="#F7F8F8" transform="translate(17,44)"/>
<path d="M0 0 C7.11120489 1.31117661 14.04699943 3.01720516 21 5 C21.33 6.65 21.66 8.3 22 10 C25.3 10.99 28.6 11.98 32 13 C32 13.66 32 14.32 32 15 C27.59533989 17.20233005 22.05321619 16.51176259 17.3984375 15.3515625 C10.38352812 12.81055817 3.96745832 8.85293921 0.5 2.0625 C0.335 1.381875 0.17 0.70125 0 0 Z " fill="#F4F4F4" transform="translate(20,58)"/>
<path d="M0 0 C6.15205048 2.37260785 10.22501757 4.53041202 13.84765625 10.09375 C2.90949739 8.60800477 -7.59729886 5.21866651 -18.15234375 2.09375 C-12.20769471 -1.86934936 -6.88070346 -1.97809567 0 0 Z " fill="#EFEFEF" transform="translate(52.15234375,18.90625)"/>
<path d="M0 0 C2.86183921 0.51705498 5.66824579 1.09854516 8.5 1.75 C9.72662354 2.0269873 9.72662354 2.0269873 10.97802734 2.30957031 C16.4464921 3.57076971 21.73237929 5.04902937 27 7 C27 7.66 27 8.32 27 9 C17.77622123 7.38949895 8.94445024 4.71861481 0 2 C-0.33 3.32 -0.66 4.64 -1 6 C-1.042721 4.33388095 -1.04063832 2.66617115 -1 1 C-0.67 0.67 -0.34 0.34 0 0 Z " fill="#3B3E40" transform="translate(17,42)"/>
<path d="M0 0 C1.87939453 0.14013672 1.87939453 0.14013672 4.1328125 0.6796875 C4.93847656 0.86660156 5.74414062 1.05351562 6.57421875 1.24609375 C7.83685547 1.55740234 7.83685547 1.55740234 9.125 1.875 C10.39923828 2.17470703 10.39923828 2.17470703 11.69921875 2.48046875 C13.80195068 2.97661898 15.90131799 3.48698884 18 4 C17.34 4.66 16.68 5.32 16 6 C13.8984375 5.828125 13.8984375 5.828125 11.375 5.25 C10.0446875 4.95222656 10.0446875 4.95222656 8.6875 4.6484375 C7.800625 4.43445313 6.91375 4.22046875 6 4 C5.195625 3.80664062 4.39125 3.61328125 3.5625 3.4140625 C1.70493005 2.95630419 -0.14808537 2.48012601 -2 2 C-1.34 1.34 -0.68 0.68 0 0 Z " fill="#474A4D" transform="translate(35,21)"/>
<path d="M0 0 C2.3828125 0.2421875 2.3828125 0.2421875 5.125 0.875 C6.03507812 1.07867187 6.94515625 1.28234375 7.8828125 1.4921875 C8.58148438 1.65976562 9.28015625 1.82734375 10 2 C9.34 2.66 8.68 3.32 8 4 C5.6171875 3.7578125 5.6171875 3.7578125 2.875 3.125 C1.96492188 2.92132813 1.05484375 2.71765625 0.1171875 2.5078125 C-0.58148437 2.34023438 -1.28015625 2.17265625 -2 2 C-1.34 1.34 -0.68 0.68 0 0 Z " fill="#444546" transform="translate(25,57)"/>
</svg>
